<svg width="1512" height="1080" viewBox="0 0 1512 1080" fill="none" xmlns="http://www.w3.org/2000/svg">
<path opacity="0.2" d="M508.17 539.844H599.341C590.071 547.53 580.116 555.06 569.779 562.663C544.659 581.14 514.88 599.751 505.119 624.702C494.262 652.459 512.656 681.255 539.261 703.858C565.865 726.465 603.534 743.626 645.51 757.433C677.992 768.116 714.2 777.049 743.9 791.386C778.672 808.189 800.242 830.342 827.707 848.617C841.37 857.71 856.584 865.901 876.1 871.877C909.939 882.19 950.188 882.967 988.654 878.654C950.191 882.964 909.944 882.186 876.107 871.877C856.592 865.901 841.378 857.71 827.715 848.617C800.25 830.342 778.68 808.189 743.908 791.386C714.208 777.049 677.999 768.116 645.518 757.433C603.542 743.626 565.873 726.465 539.269 703.858C512.664 681.255 494.269 652.456 505.127 624.702C514.888 599.751 544.667 581.14 569.787 562.663C580.117 555.06 590.079 547.53 599.349 539.844H688.045C679.211 545.452 670.031 550.981 660.713 556.575C632.721 573.382 600.936 590.392 588.976 614.729C585.886 621.014 584.466 627.409 584.415 633.802C584.467 627.409 585.887 621.015 588.976 614.731L588.982 614.735C600.943 590.397 632.722 573.388 660.72 556.581C670.038 550.987 679.217 545.457 688.051 539.849H773.381C773.385 539.846 773.39 539.844 773.395 539.842H854.118C850.265 541.353 846.411 542.871 842.563 544.4C808.797 557.846 773.782 571.841 756.666 594.79C747.658 606.863 745.88 620.061 748.667 632.918C745.882 620.062 747.663 606.866 756.666 594.794V594.802C773.782 571.852 808.791 557.858 842.563 544.412C846.411 542.879 850.265 541.365 854.118 539.854H928.685C928.699 539.849 928.713 539.844 928.727 539.84H996.587C967.989 548.406 942.414 558.963 924.358 574.847C893.719 601.796 895.555 640.359 928.709 666.233C936.701 672.471 946.063 677.85 956.409 682.518C946.066 677.851 936.707 672.472 928.717 666.236C895.563 640.365 893.727 601.799 924.366 574.85H924.372C942.428 558.966 968.003 548.409 996.601 539.843H1485C1485 539.924 1483.02 583.858 1499.5 611.519C1514.1 636.011 1514 683.042 1514 683.194C1514 683.195 1513.99 683.194 1513.99 683.194V705.828C1433.97 711.646 1355.86 726.27 1276.85 735.922C1239.78 740.448 1203.86 745.455 1166.87 747.781C1129.96 750.111 1090.88 749.865 1054.74 744.459C1040.28 742.284 1026.72 739.467 1013.57 736.261C986.753 729.79 960.79 721.416 934.537 712.031C912.022 703.988 890.047 695.447 872.076 684.476C850.531 671.318 835.887 655.038 829.949 637.517C828.836 634.233 827.992 630.895 827.454 627.531L827.455 627.54C827.993 630.904 828.836 634.243 829.949 637.526C835.881 655.048 850.531 671.328 872.076 684.485C890.041 695.457 912.022 703.998 934.537 712.041C960.79 721.426 986.753 729.797 1013.57 736.271C1026.72 739.477 1040.28 742.294 1054.74 744.469C1090.88 749.872 1129.96 750.116 1166.87 747.79C1203.87 745.464 1239.79 740.458 1276.85 735.932C1355.86 726.276 1433.97 711.655 1513.99 705.837V752.01C1418.35 756.94 1323.49 769.167 1231.14 783.843C1186.18 790.988 1145.54 802.435 1101.7 809.216C1057.93 815.996 1007.67 818.24 965.42 808.17C948.431 804.094 934.059 798.575 920.639 792.44L918.113 791.274C918.954 791.667 919.799 792.057 920.646 792.444C934.067 798.579 948.439 804.098 965.428 808.174C1007.68 818.244 1057.94 816 1101.71 809.22C1145.54 802.439 1186.19 790.992 1231.15 783.847C1323.5 769.171 1418.35 756.944 1514 752.014V797.853C1514 797.853 1513.99 797.852 1513.99 797.853V820.13C1513.99 820.13 1514 820.13 1514 820.13V841.89C1491.6 844.191 1469.11 846.204 1446.53 847.996C1343.53 856.23 1237.12 858.83 1139.74 879.666C1079.21 892.614 1028.88 916.379 971.365 932.068C913.878 947.758 841.257 954.978 786.787 935.577C764.739 927.7 748.64 916.852 734.783 904.787C706.888 880.669 687.621 851.57 648.59 831.055C615.296 813.569 571.89 804.531 532.234 793.902C479.94 779.89 430.869 762.171 393.928 737.021C356.987 711.876 329.873 678.441 337.429 644.639L337.441 644.628C339.993 633.212 346.238 622.616 354.082 612.487C346.229 622.623 339.975 633.228 337.421 644.654C329.866 678.456 356.979 711.89 393.92 737.036C430.855 762.186 479.926 779.901 532.227 793.917C571.888 804.542 615.288 813.585 648.582 831.07C687.613 851.585 706.88 880.684 734.775 904.802C748.638 916.866 764.731 927.716 786.779 935.593C841.249 954.993 913.871 947.772 971.357 932.083C1028.87 916.398 1079.21 892.63 1139.73 879.682C1237.11 858.846 1343.52 856.245 1446.53 848.011C1469.11 846.215 1491.59 844.202 1513.99 841.904V863.155C1513.99 863.155 1514 863.156 1514 863.155V884.023C1514 884.024 1513.99 884.024 1513.99 884.024V904.669C1474 909.964 1434.3 916.071 1393.88 920.106C1286.04 930.891 1172.08 926.699 1071.17 951.546C1055.24 955.469 1040 960.125 1025.18 965.238C1039.99 960.127 1055.24 955.472 1071.16 951.55C1172.07 926.703 1286.04 930.894 1393.87 920.11C1434.29 916.074 1474 909.967 1513.98 904.673V925.325C1467.91 931.024 1422.67 939.219 1376.32 944.146C1266.88 955.781 1150.45 949.375 1048.31 975.509C972.682 994.859 912.209 1030.35 841.011 1054.94C769.813 1079.53 674.821 1091.73 608.137 1063C526.917 1028.01 529.311 952.343 457.949 910.419C417.47 886.636 359.686 877.464 305.671 866.864C232.728 852.549 160.851 833.603 103.243 803.364C45.6352 773.129 3.45294 730.235 2.03516 684.523C1.13852 655.684 16.0916 627.621 24.2227 599.186L24.2109 599.189C31.4968 556.334 -1.00927 559.699 -2.00293 539.848H128.388C126.752 557.722 122.292 575.511 115.143 593.101C104.158 619.862 86.5808 646.43 85.8779 674.555C84.8055 717.33 123.467 757.816 175.907 786.781C228.347 815.747 294.492 834.436 362.31 848.625C412.707 859.268 466.928 868.372 505.608 890.578C551.026 916.658 566.943 956.123 595.377 989.062C609.591 1005.56 626.956 1020.42 652.797 1031.15C716.427 1057.55 805.827 1046.59 873.596 1024.22C887.282 1019.71 900.565 1014.77 913.642 1009.63C900.568 1014.77 887.287 1019.7 873.604 1024.22C805.835 1046.59 716.435 1057.54 652.805 1031.15C626.964 1020.42 609.599 1005.55 595.385 989.059C566.956 956.115 551.034 916.654 505.616 890.574C466.936 868.368 412.715 859.264 362.317 848.621C294.494 834.432 228.355 815.743 175.915 786.777C123.885 758.042 85.4184 717.958 85.8682 675.553L85.8857 674.555C86.5886 646.43 104.16 619.862 115.15 593.101C122.3 575.511 126.754 557.722 128.396 539.848H224.998C221.005 555.728 214.607 571.428 206.076 587.013C192.322 612.122 172.079 637.139 169.729 664.582C166.318 704.389 201.314 742.501 248.585 770.193C295.856 797.889 356.331 816.208 418.956 830.386C465.785 840.986 516.383 850.103 553.27 870.737C596.56 894.96 613.598 930.969 641.851 960.97C655.944 975.988 672.89 989.513 697.465 999.291C737.07 1015.03 786.611 1016.32 834.148 1009.7C786.615 1016.32 737.079 1015.02 697.473 999.29C672.898 989.512 655.951 975.987 641.858 960.969C613.6 930.968 596.568 894.963 553.277 870.736C516.397 850.106 465.798 840.988 418.963 830.385C356.338 816.203 295.864 797.885 248.593 770.192C201.315 742.5 166.325 704.392 169.736 664.581V664.574C172.093 637.135 192.336 612.115 206.084 587.005C214.615 571.42 221.013 555.724 225.006 539.84H320.657C320.655 539.846 320.652 539.852 320.649 539.857H415.114C414.278 541.146 413.423 542.432 412.551 543.715C413.429 542.423 414.291 541.129 415.134 539.832H508.181C508.177 539.836 508.173 539.84 508.17 539.844ZM840.128 1008.82C838.653 1009.05 837.176 1009.27 835.696 1009.48C837.176 1009.27 838.653 1009.05 840.128 1008.82ZM934.25 1001.32C927.852 1003.95 921.43 1006.55 914.958 1009.11C921.43 1006.55 927.852 1003.95 934.25 1001.32ZM843.245 1008.33C843.782 1008.25 844.319 1008.16 844.854 1008.08L844.863 1008.07C844.324 1008.16 843.785 1008.25 843.245 1008.33ZM945.019 996.864C942.281 998.002 939.54 999.137 936.796 1000.27C939.54 999.137 942.281 998.002 945.019 996.864ZM1180.57 912.947C1173.63 913.751 1166.72 914.622 1159.84 915.567C1166.71 914.623 1173.62 913.751 1180.56 912.948L1180.57 912.947ZM1195.37 911.333C1193.33 911.543 1191.29 911.759 1189.25 911.979C1191.29 911.759 1193.32 911.543 1195.37 911.334L1195.37 911.333ZM1220.23 909.019C1214.6 909.494 1208.98 909.999 1203.39 910.538C1208.98 910 1214.59 909.495 1220.22 909.02L1220.23 909.019ZM1268.73 905.521C1254.97 906.382 1241.26 907.32 1227.62 908.412C1241.26 907.32 1254.97 906.382 1268.73 905.521ZM1328.11 902.049C1309.9 903.11 1291.67 904.112 1273.49 905.228C1291.67 904.112 1309.9 903.11 1328.11 902.049ZM1354.35 900.455C1351.2 900.657 1348.04 900.852 1344.88 901.046C1348.04 900.852 1351.2 900.657 1354.35 900.455ZM1396.46 897.396C1385.51 898.309 1374.52 899.115 1363.49 899.855C1374.52 899.115 1385.51 898.31 1396.46 897.396L1396.46 897.396ZM1411.43 896.073C1409.14 896.288 1406.84 896.494 1404.54 896.698C1406.84 896.495 1409.14 896.289 1411.43 896.074C1413.58 895.873 1415.73 895.668 1417.89 895.458L1417.89 895.457C1415.74 895.667 1413.59 895.872 1411.43 896.073ZM1427.96 894.439C1428.9 894.342 1429.84 894.248 1430.77 894.149L1430.78 894.148C1429.84 894.247 1428.9 894.342 1427.96 894.439ZM1000.81 877.116C997.206 877.623 993.576 878.089 989.928 878.509C993.576 878.089 997.206 877.623 1000.81 877.116ZM1008.14 876.025C1007.38 876.145 1006.62 876.262 1005.86 876.378C1006.62 876.262 1007.38 876.145 1008.14 876.025ZM846.413 754.893C847.092 755.201 847.768 755.509 848.44 755.819C847.768 755.509 847.092 755.201 846.413 754.893ZM827.21 746.791C831.267 748.387 835.28 750.023 839.227 751.714C839.725 751.928 840.22 752.144 840.715 752.359C840.218 752.143 839.72 751.925 839.219 751.71C835.275 750.02 831.264 748.386 827.21 746.791ZM814.096 741.796C818.037 743.257 821.961 744.741 825.848 746.258C822.799 745.068 819.729 743.898 816.644 742.744L814.096 741.796ZM665.331 723.499C665.088 723.379 664.845 723.261 664.603 723.141L664.6 723.14C664.843 723.26 665.087 723.379 665.331 723.499ZM747.179 715.738C750.961 717.528 754.838 719.269 758.801 720.96C759.921 721.438 761.05 721.91 762.185 722.381C761.047 721.909 759.916 721.435 758.793 720.956C755.326 719.476 751.924 717.959 748.594 716.403L747.179 715.738ZM660.062 720.844C660.788 721.219 661.519 721.591 662.252 721.962C661.52 721.591 660.79 721.219 660.065 720.845L660.062 720.844ZM635.081 706.106C635.036 706.076 634.99 706.045 634.945 706.015L634.943 706.014C634.989 706.045 635.035 706.075 635.081 706.106ZM958.993 683.664C959.694 683.967 960.399 684.266 961.107 684.563C960.401 684.267 959.699 683.969 959.001 683.667L958.993 683.664ZM674.989 24.7285C746.187 0.134403 841.179 -12.0669 907.863 16.6641C989.082 51.6563 986.689 127.325 1058.05 169.249C1098.53 193.032 1156.31 202.204 1210.33 212.804C1283.27 227.119 1355.15 246.064 1412.76 276.303C1470.36 306.538 1512.55 349.433 1513.96 395.145C1514.86 423.984 1499.91 452.047 1491.78 480.482L1491.79 480.479C1486.18 500.066 1483.96 519.968 1484.95 539.819H1387.61C1389.25 521.945 1393.71 504.156 1400.86 486.566C1411.84 459.805 1429.42 433.238 1430.12 405.113C1431.19 362.338 1392.53 321.852 1340.09 292.887C1287.65 263.921 1221.51 245.232 1153.69 231.043C1103.29 220.4 1049.07 211.296 1010.39 189.09C964.974 163.01 949.057 123.545 920.623 90.6045C906.409 74.1112 889.044 59.2448 863.203 48.5186C799.573 22.1211 710.173 33.0746 642.404 55.4434C630.926 59.2313 619.732 63.3135 608.705 67.5664C619.729 63.3148 630.921 59.2343 642.396 55.4473C710.165 33.0785 799.565 22.125 863.195 48.5225C889.036 59.2487 906.401 74.1151 920.615 90.6084C949.044 123.552 964.966 163.014 1010.38 189.094C1049.06 211.3 1103.28 220.404 1153.68 231.047C1221.51 245.236 1287.65 263.925 1340.08 292.891C1392.52 321.852 1431.19 362.342 1430.11 405.117L1430.07 406.431C1428.86 434.069 1411.67 460.224 1400.85 486.567C1393.7 504.157 1389.25 521.946 1387.6 539.82H1291C1294.99 523.94 1301.39 508.24 1309.92 492.655C1323.68 467.545 1343.92 442.529 1346.27 415.086C1349.68 375.279 1314.69 337.167 1267.42 309.475C1229.75 287.404 1183.69 271.289 1134.85 258.479L1137.71 259.234C1185.49 271.923 1230.48 287.837 1267.41 309.472C1314.68 337.164 1349.67 375.272 1346.26 415.083V415.09C1343.91 442.53 1323.66 467.549 1309.92 492.659C1301.39 508.244 1294.99 523.94 1290.99 539.824H1195.34C1195.34 539.821 1195.35 539.818 1195.35 539.814H1100.89C1102.53 537.28 1104.25 534.756 1106.03 532.241C1104.24 534.763 1102.52 537.291 1100.87 539.832H1007.82C1007.82 539.829 1007.82 539.827 1007.83 539.824H916.659C925.929 532.138 935.884 524.608 946.221 517.005C971.341 498.528 1001.12 479.917 1010.88 454.966C1021.74 427.209 1003.34 398.413 976.739 375.81C950.135 353.203 912.466 336.042 870.49 322.235C838.008 311.552 801.8 302.619 772.1 288.282C737.328 271.479 715.758 249.326 688.293 231.051C674.63 221.958 659.416 213.767 639.9 207.791C603.239 196.618 559.054 196.638 517.764 202.196C559.05 196.641 603.234 196.622 639.893 207.791C659.408 213.767 674.622 221.958 688.285 231.051C715.75 249.326 737.32 271.478 772.092 288.281C801.793 302.618 838.001 311.552 870.482 322.235C912.458 336.042 950.127 353.202 976.731 375.809C1003.34 398.412 1021.73 427.212 1010.87 454.966C1001.11 479.917 971.333 498.527 946.213 517.004C935.882 524.607 925.922 532.138 916.651 539.824H827.955C836.789 534.216 845.969 528.687 855.287 523.093C883.279 506.286 915.064 489.275 927.024 464.938C930.161 458.557 931.578 452.062 931.587 445.57C931.577 452.061 930.161 458.556 927.024 464.937L927.018 464.933C915.057 489.271 883.278 506.28 855.28 523.087C845.962 528.681 836.783 534.21 827.949 539.818H742.621C742.616 539.821 742.611 539.824 742.605 539.826H661.882C665.735 538.315 669.589 536.797 673.437 535.268C707.203 521.822 742.218 507.827 759.334 484.878C768.362 472.778 770.129 459.548 767.315 446.663L767.512 447.603C770.036 460.188 768.138 473.069 759.334 484.874V484.866C742.218 507.816 707.209 521.81 673.437 535.256C669.589 536.789 665.735 538.303 661.882 539.814H587.315C587.301 539.819 587.287 539.824 587.273 539.828H519.413C548.011 531.262 573.586 520.705 591.642 504.821C622.281 477.872 620.445 439.309 587.291 413.435C579.118 407.057 569.516 401.572 558.892 396.832L558.884 396.829C569.508 401.569 579.111 407.054 587.283 413.432C620.437 439.302 622.274 477.869 591.634 504.818H591.628C573.572 520.702 547.997 531.259 519.399 539.825H2V396.473C2.00261 396.472 2.0052 396.472 2.00781 396.472V373.84C82.0277 368.022 160.139 353.398 239.153 343.746C276.215 339.22 312.138 334.213 349.128 331.887C386.039 329.557 425.125 329.803 461.26 335.209C475.722 337.384 489.277 340.2 502.431 343.406C529.247 349.877 555.21 358.252 581.463 367.637C603.978 375.68 625.953 384.22 643.924 395.191C665.469 408.349 680.113 424.63 686.051 442.151C687.349 445.98 688.28 449.883 688.788 453.814C688.281 449.88 687.35 445.973 686.051 442.142C680.119 424.62 665.469 408.34 643.924 395.183C625.959 384.211 603.978 375.67 581.463 367.627C555.21 358.242 529.247 349.871 502.431 343.397C489.277 340.191 475.722 337.374 461.26 335.199C425.125 329.796 386.039 329.551 349.128 331.877C312.132 334.203 276.209 339.21 239.153 343.736C160.139 353.391 82.0277 368.012 2.00781 373.83V327.658C97.6536 322.728 192.506 310.501 284.861 295.825C329.818 288.68 370.462 277.233 414.298 270.452C458.067 263.672 508.332 261.428 550.58 271.498C567.569 275.574 581.941 281.092 595.361 287.227C598.341 288.589 601.28 289.988 604.192 291.412C601.277 289.986 598.336 288.586 595.354 287.223C581.933 281.088 567.561 275.57 550.572 271.494C508.324 261.424 458.059 263.668 414.29 270.448C370.46 277.229 329.811 288.676 284.854 295.821C192.498 310.497 97.6458 322.724 2 327.654V281.814C2.00261 281.814 2.0052 281.814 2.00781 281.813V259.532C2.0052 259.532 2.00261 259.533 2 259.533V237.774C24.3997 235.473 46.8904 233.46 69.4658 231.668C172.473 223.434 278.879 220.834 376.264 199.998C436.786 187.05 487.118 163.285 544.635 147.596C602.122 131.907 674.743 124.686 729.213 144.087C751.261 151.964 767.36 162.813 781.217 174.877C809.112 198.995 828.379 228.094 867.41 248.608C900.704 266.094 944.11 275.133 983.766 285.762C1036.06 299.774 1085.13 317.493 1122.07 342.643C1159.01 367.789 1186.13 401.223 1178.57 435.025L1178.56 435.036C1172.71 461.195 1147.46 483.045 1128.06 504.84C1120.06 513.819 1112.75 522.794 1106.29 531.876C1112.75 522.787 1120.07 513.807 1128.08 504.821C1147.48 483.026 1172.73 461.177 1178.58 435.018C1186.13 401.216 1159.02 367.782 1122.08 342.636C1085.15 317.486 1036.07 299.77 983.773 285.754C944.112 275.129 900.712 266.087 867.418 248.602C828.387 228.087 809.12 198.988 781.225 174.87C767.362 162.806 751.269 151.956 729.221 144.079C674.751 124.679 602.129 131.9 544.643 147.589C487.126 163.274 436.788 187.042 376.272 199.99C278.888 220.826 172.481 223.427 69.4736 231.661C46.8921 233.457 24.4075 235.469 2.00781 237.767V216.509C30.212 213.144 58.5073 210.092 87.0205 207.629C191.633 198.547 300.596 198.241 399.12 176.038C463.46 161.539 516.281 134.792 577.222 116.878C601.803 109.649 629.2 103.959 656.918 101.17C629.197 103.958 601.797 109.647 577.214 116.877C516.273 134.791 463.452 161.539 399.112 176.038C300.589 198.237 191.632 198.544 87.0127 207.629C58.4995 210.092 30.2042 213.144 2 216.509V195.641C2.00262 195.64 2.00519 195.639 2.00781 195.639V174.998C41.9964 169.703 81.7003 163.597 122.119 159.562C229.955 148.777 343.923 152.969 444.828 128.122C461.679 123.972 477.76 119.005 493.38 113.542L493.388 113.539C477.768 119.002 461.686 123.969 444.836 128.118C343.931 152.965 229.963 148.774 122.127 159.558C81.7081 163.594 42.0043 169.7 2.01562 174.994V154.343C48.0874 148.644 93.3292 140.449 139.68 135.522C249.122 123.887 365.55 130.293 467.69 104.159C543.318 84.8092 603.791 49.3226 674.989 24.7285ZM551.221 393.605C551.889 393.871 552.554 394.139 553.216 394.409C552.557 394.14 551.894 393.873 551.229 393.608L551.221 393.605ZM878.913 372.217C878.761 372.116 878.61 372.014 878.457 371.914L878.455 371.913C878.608 372.014 878.76 372.116 878.913 372.217ZM871.69 367.637C871.249 367.369 870.805 367.101 870.36 366.835L870.358 366.834C870.804 367.101 871.248 367.368 871.69 367.637ZM753.174 357.021C754.528 357.579 755.873 358.142 757.207 358.712C761.492 360.541 765.676 362.427 769.75 364.371C765.674 362.426 761.487 360.538 757.199 358.708C755.868 358.14 754.525 357.578 753.174 357.021ZM864.191 363.265C863.891 363.096 863.59 362.927 863.288 362.76L863.286 362.759C863.589 362.927 863.89 363.096 864.191 363.265ZM858.908 360.381C859.6 360.749 860.289 361.12 860.974 361.491C860.289 361.12 859.602 360.749 858.91 360.382L858.908 360.381ZM851.397 356.527C852.083 356.867 852.764 357.209 853.443 357.552C852.765 357.209 852.085 356.867 851.4 356.528L851.397 356.527ZM849.028 355.366C848.794 355.252 848.559 355.138 848.324 355.024L848.321 355.023C848.557 355.137 848.793 355.252 849.028 355.366ZM843.634 352.808C844.38 353.153 845.122 353.501 845.861 353.851C845.123 353.502 844.382 353.154 843.637 352.809L843.634 352.808ZM840.096 351.192C839.686 351.008 839.276 350.823 838.864 350.64L838.861 350.639C839.274 350.823 839.685 351.008 840.096 351.192ZM670.109 325.012C672.3 326.003 674.521 326.988 676.781 327.958C689.317 333.33 702.528 338.144 715.675 342.894C702.526 338.143 689.311 333.327 676.773 327.954C674.516 326.986 672.297 326.002 670.109 325.012ZM1117.6 254.113C1121.4 255.043 1125.19 255.99 1128.97 256.956C1125.19 255.99 1121.4 255.043 1117.6 254.113ZM953.83 245.021C954.429 245.218 955.029 245.415 955.63 245.61C955.029 245.415 954.429 245.218 953.83 245.021ZM828.456 84.7148C847.812 93.9849 862.031 105.788 874.142 118.694C902.4 148.695 919.432 184.702 962.723 208.928C967.581 211.646 972.68 214.161 977.975 216.509C972.683 214.162 967.587 211.647 962.73 208.931C919.44 184.708 902.402 148.699 874.149 118.698C861.818 105.557 847.302 93.5593 827.402 84.2148L828.456 84.7148ZM665.941 100.369C663.376 100.567 660.811 100.79 658.249 101.039C660.811 100.79 663.376 100.567 665.941 100.369ZM683.601 99.4268C683.192 99.4384 682.783 99.4527 682.374 99.4658C682.783 99.4527 683.192 99.4384 683.601 99.4268ZM819.674 80.835C821.822 81.7082 823.911 82.6105 825.944 83.54C823.913 82.6117 821.827 81.71 819.682 80.8379L819.674 80.835ZM805.733 75.8867C808.984 76.8858 812.181 77.9702 815.32 79.1406C812.181 77.9701 808.984 76.8858 805.733 75.8867ZM801.456 74.6299C802.639 74.9625 803.816 75.3051 804.986 75.6592C803.816 75.3051 802.639 74.9625 801.456 74.6299ZM598.718 71.4785C595.48 72.7653 592.254 74.0659 589.036 75.373C592.254 74.066 595.48 72.7652 598.718 71.4785ZM794.806 72.8867C796.583 73.3192 798.348 73.7758 800.099 74.2539C798.351 73.7767 796.59 73.3204 794.815 72.8887L794.806 72.8867ZM787.024 71.1533C788.76 71.5055 790.484 71.8788 792.196 72.2715C790.487 71.8796 788.767 71.5068 787.035 71.1553L787.024 71.1533ZM607.882 67.8838C605.181 68.9282 602.491 69.9831 599.809 71.0459C602.491 69.9831 605.181 68.9281 607.882 67.8838ZM782.284 70.2461C782.729 70.3264 783.174 70.4074 783.618 70.4902C782.65 70.3096 781.678 70.1354 780.703 69.9668L782.284 70.2461ZM775.188 69.082C774.886 69.0373 774.585 68.9919 774.283 68.9482L774.273 68.9473C774.578 68.9913 774.883 69.0368 775.188 69.082ZM766.407 67.9395C766.321 67.9298 766.235 67.9197 766.148 67.9102L766.139 67.9092C766.228 67.9191 766.318 67.9294 766.407 67.9395Z" fill="url(#paint0_linear_418_3481)"/>
<defs>
<linearGradient id="paint0_linear_418_3481" x1="756" y1="0" x2="756" y2="1079.67" gradientUnits="userSpaceOnUse">
<stop stop-color="#E0EEF5"/>
<stop offset="1" stop-color="#68CDFF"/>
</linearGradient>
</defs>
</svg>
