<svg width="1414" height="539" viewBox="0 0 1414 539" fill="none" xmlns="http://www.w3.org/2000/svg">
<g opacity="0.1">
<path d="M9.12897 520.399L0.484375 515.382C11.917 446.401 59.7632 421.899 99.3948 438.052C114.892 444.369 129.956 454.823 144.523 464.934C165.082 479.202 184.501 492.679 205.348 495.901C247.736 502.43 288.057 464.523 327.071 427.856C366.859 390.457 407.996 351.797 452.527 357.75C484.733 362.068 514.014 389.437 542.331 415.908C552.745 425.642 563.512 435.706 574.196 444.39C592.186 459.006 653.805 501.655 691.479 436.82C707.182 409.803 714.415 371.358 722.073 330.656C729.737 289.913 737.665 247.784 754.915 217.901C789.67 157.684 846.897 175.853 885.456 224.916C906.924 252.23 925.209 287.406 942.892 321.426C956.228 347.08 970.019 373.615 984.968 396.3C1015.54 442.697 1065.24 482.776 1104.69 443.018C1137.2 410.256 1148.93 342.372 1161.35 270.495C1166.98 237.881 1172.81 204.157 1180.76 173.918C1199.97 100.89 1237.01 43.4764 1282.39 16.3999C1327.77 -10.6808 1375.74 -3.99103 1414 34.7459L1409.69 49.6411C1373.59 13.0847 1328.19 6.85648 1285.15 32.5357C1242.1 58.2234 1207.01 112.482 1188.89 181.399C1181.23 210.533 1175.5 243.664 1169.96 275.707C1157.54 347.601 1144.7 421.941 1108.98 457.931C1065.67 501.587 1013.57 461.513 979.272 409.455C963.906 386.139 949.928 359.244 936.409 333.235C919.043 299.82 901.084 265.271 880.373 238.922C844.767 193.627 792.354 176.128 761.071 230.327C745.463 257.366 738.251 295.7 730.615 336.283C722.926 377.15 714.976 419.41 697.614 449.289C669.476 497.709 621.997 501.689 570.6 459.929C559.692 451.067 548.814 440.897 538.294 431.066C510.767 405.331 482.305 378.725 451.888 374.652C409.858 369.008 369.839 406.627 331.145 442.997C291.015 480.718 249.519 519.722 204.614 512.786C182.528 509.378 161.613 494.86 141.387 480.82C127.112 470.912 112.353 460.67 97.4781 454.607C61.8157 440.067 19.0227 460.708 9.12897 520.399Z" fill="#F7F7F7"/>
<path d="M12.6661 516.526L4.07812 511.174C16.5947 440.835 65.414 417.188 105.374 434.962C120.837 441.753 135.804 452.8 150.276 463.482C170.953 478.746 190.485 493.163 211.662 496.613C253.674 503.481 293.677 466.006 332.378 429.792C371.055 393.604 411.048 356.214 454.154 360.613C486.026 363.886 514.949 388.858 542.919 413.004C553.128 421.815 563.682 430.931 574.166 438.781C591.886 452.05 652.651 490.449 690.674 427.464C706.687 400.942 714.874 362.819 722.79 325.953C731.077 287.36 739.647 247.451 757.196 219.587C793.483 161.949 850.723 184.783 888.547 230.396C910.192 256.499 928.554 290.269 946.312 322.926C959.498 347.174 973.135 372.248 987.926 393.782C1020.29 440.572 1068.72 477.289 1107.56 439.979C1140.04 408.775 1152.24 342.991 1165.16 273.342C1170.93 242.247 1176.9 210.094 1184.84 181.07C1204.47 109.32 1241.62 52.8218 1286.75 26.0671C1330.58 0.0745287 1376.61 5.71 1413.02 41.5128L1408.82 56.5054C1374.52 22.79 1331.03 17.5779 1289.48 42.2071C1246.64 67.6069 1211.44 121.032 1192.9 188.784C1185.24 216.754 1179.38 248.34 1173.72 278.888C1160.78 348.626 1147.4 420.736 1111.69 455.044C1069.08 495.974 1016.96 457.152 982.381 407.166C967.163 385.013 953.341 359.592 939.969 335.001C922.534 302.941 904.51 269.789 883.643 244.631C847.419 200.948 794.366 182.755 763.053 232.496C747.21 257.65 739.43 293.893 731.188 332.266C722.881 370.961 714.288 410.968 696.673 440.144C668.393 486.981 621.336 492.35 570.801 454.506C560.102 446.495 549.439 437.286 539.126 428.387C511.928 404.905 483.806 380.623 453.656 377.528C412.956 373.366 374.046 409.744 336.427 444.946C296.598 482.209 255.414 520.747 210.876 513.494C188.387 509.832 167.321 494.28 146.952 479.245C132.778 468.783 118.126 457.965 103.29 451.453C67.2787 435.428 23.542 455.395 12.6661 516.526Z" fill="#EFF4F7"/>
<path d="M228.571 515.155C224.787 515.155 220.981 514.842 217.149 514.185C194.18 510.252 172.899 493.625 152.319 477.54C138.312 466.595 123.826 455.273 109.106 448.275C73.5179 431.343 27.8803 451.141 16.2033 512.636L7.67188 506.966C21.2339 435.543 71.0309 412.692 111.335 431.859C126.7 439.163 141.496 450.73 155.807 461.912C176.676 478.222 196.387 493.625 217.973 497.317C259.598 504.451 299.314 467.455 337.719 431.681C375.273 396.7 414.124 360.482 455.781 363.467C487.331 365.69 515.895 388.258 543.521 410.08C553.517 417.976 563.854 426.143 574.128 433.168C591.58 445.095 651.497 479.259 689.871 418.103C706.166 392.132 714.956 356.181 723.456 321.411C732.381 284.893 741.612 247.138 759.494 221.264C795.629 168.953 853.324 192.16 891.641 235.867C913.313 260.585 931.63 292.738 949.344 323.833C962.49 346.904 976.081 370.763 990.872 391.234C1023.47 436.343 1071.99 472.044 1110.44 436.927C1142.9 407.272 1155.59 343.559 1169.03 276.107C1174.92 246.55 1181.01 215.984 1188.93 188.197C1208.41 119.826 1244.41 64.9996 1287.69 37.775C1331.06 10.5038 1376.39 14.3186 1412.05 48.2626L1407.95 63.3568C1337.92 -3.2991 1235.36 61.2441 1196.91 196.161C1189.28 222.949 1183.3 252.977 1177.51 282.018C1164.05 349.618 1150.13 419.521 1114.41 452.144C1072.33 490.577 1020.23 452.911 985.493 404.846C970.277 383.786 956.489 359.585 943.153 336.184C925.775 305.677 907.803 274.134 886.931 250.326C851.178 209.544 797.781 187.252 765.036 234.661C748.919 257.981 740.55 292.213 731.691 328.456C722.781 364.903 713.569 402.59 695.745 430.996C667.331 476.274 620.712 483.032 571.026 449.075C560.543 441.911 550.1 433.659 540.005 425.686C511.894 403.479 485.34 382.504 455.446 380.395C416.043 377.643 378.296 412.811 341.758 446.844C305.646 480.474 268.413 515.155 228.571 515.155Z" fill="#E7F1F8"/>
<path d="M235.26 515.944C231.336 515.944 227.39 515.605 223.416 514.89C200.032 510.694 178.597 493.008 157.871 475.907C143.967 464.433 129.59 452.574 114.922 445.113C79.0057 426.844 32.3951 445.977 19.7337 508.751L11.2656 502.772C25.9094 430.142 76.6794 408.112 117.298 428.766C132.623 436.561 147.316 448.687 161.523 460.411C182.519 477.732 202.35 494.097 224.28 498.034C265.55 505.452 304.965 468.887 343.085 433.538C379.505 399.759 417.145 364.82 457.399 366.331C488.644 367.496 516.857 387.658 544.142 407.155C553.915 414.137 564.022 421.361 574.079 427.559C596.104 441.138 651.402 466.482 689.065 408.747C705.603 383.39 714.972 349.67 724.033 317.06C733.621 282.549 743.537 246.856 761.802 222.947C797.892 175.657 854.566 198.11 894.725 241.339C916.481 264.762 934.821 295.378 952.556 324.986C965.606 346.779 979.105 369.312 993.814 388.691C1026.73 432.051 1075.41 466.686 1113.32 433.876C1145.79 405.767 1158.98 344.099 1172.94 278.81C1178.93 250.806 1185.13 221.846 1193.01 195.324C1212.62 129.282 1248.09 75.7556 1290.33 48.4632C1332.7 21.0862 1376.7 23.4741 1411.07 55.0132L1407.08 70.2176C1339.81 8.47305 1239.61 73.2618 1200.92 203.551C1193.32 229.133 1187.23 257.589 1181.35 285.106C1167.34 350.593 1152.85 418.308 1117.12 449.246C1065.01 494.359 1005.58 424.896 988.605 402.536C973.468 382.598 959.774 359.735 946.529 337.625C929.136 308.588 911.154 278.565 890.21 256.018C853.758 216.773 799.646 194.024 766.993 236.821C750.546 258.351 741.569 290.661 732.066 324.872C722.585 358.998 712.779 394.288 694.804 421.843C653.67 484.9 594.694 458.095 571.247 443.64C560.992 437.319 550.786 430.023 540.915 422.97C513.132 403.116 486.89 384.364 457.22 383.259C419.216 381.811 382.551 415.831 347.106 448.704C311.407 481.814 274.604 515.944 235.26 515.944Z" fill="#DFEEF8"/>
<path d="M242.46 516.785C238.233 516.785 233.98 516.404 229.694 515.599C205.91 511.132 184.342 492.397 163.484 474.28C149.671 462.281 135.385 449.871 120.752 441.953C84.5014 422.341 36.9267 440.814 23.2742 504.862L14.8672 498.587C30.398 425.733 83.2251 404.025 123.266 425.682C138.569 433.963 153.172 446.649 167.297 458.919C188.402 477.256 208.336 494.569 230.6 498.748C272.56 506.653 310.838 472.019 351.368 435.373C385.704 404.334 421.208 372.236 458.824 369.213C489.365 366.744 516.91 385.103 543.523 402.848C553.484 409.487 563.783 416.358 574.032 421.969C595.725 433.845 650.281 455.421 688.272 399.405C704.995 374.747 714.912 343.322 724.502 312.934C735.263 278.834 745.428 246.621 764.134 224.655C799.88 182.612 857.032 205.501 897.815 246.837C919.646 268.968 938.015 298.039 955.777 326.153C968.739 346.667 982.141 367.879 996.764 386.174C1012.91 406.366 1069.22 469.258 1116.21 430.851C1148.71 404.283 1162.42 344.626 1176.93 281.471C1183 255.039 1189.28 227.704 1197.1 202.469C1216.84 138.769 1251.78 86.5421 1292.97 59.1777C1334.34 31.699 1377.03 32.6517 1410.09 61.7816L1406.23 77.1045C1341.7 20.2375 1243.87 85.2888 1204.93 210.963C1197.39 235.321 1191.21 262.186 1185.25 288.161C1170.68 351.561 1155.61 417.121 1119.83 446.369C1108.02 456.023 1095.75 459.905 1083.66 459.909C1043.32 459.914 1004.9 416.714 991.736 400.252C976.689 381.428 963.086 359.902 949.934 339.084C931.721 310.254 914.518 283.025 893.506 261.728C855.04 222.737 801.609 200.585 768.952 238.996C752.108 258.777 742.486 289.266 732.301 321.546C722.287 353.28 711.931 386.094 693.877 412.709C652.576 473.606 594.532 450.836 571.493 438.223C560.995 432.477 550.57 425.525 540.488 418.806C513.504 400.815 488.009 383.816 459.215 386.136C423.467 389.011 388.816 420.334 355.308 450.624C319.27 483.205 282.121 516.785 242.46 516.785Z" fill="#D7EBF8"/>
<path d="M249.28 517.592C244.869 517.592 240.429 517.177 235.955 516.301C211.787 511.563 190.098 491.781 169.127 472.652C155.388 460.115 141.181 447.159 126.567 438.789C89.9996 417.83 41.4586 435.651 26.799 500.961L18.4531 494.402C35.0725 420.371 88.8885 399.48 129.217 422.594C144.51 431.354 159.041 444.61 173.094 457.427C194.294 476.768 214.319 495.033 236.899 499.458C278.855 507.697 318.973 471.712 357.774 436.93C390.648 407.457 424.64 376.981 460.382 372.099C490.518 367.971 517.611 384.081 543.811 399.649C553.653 405.497 563.83 411.547 573.959 416.374C595.321 426.557 649.142 444.373 687.463 390.059C704.291 366.209 714.707 337.147 724.784 309.042C736.33 276.834 747.235 246.408 766.466 226.356C804.159 186.984 862.439 215.737 900.89 252.327C922.791 273.167 941.193 300.684 958.99 327.295C971.857 346.534 985.165 366.434 999.694 383.645C1016.02 402.986 1072.9 463.329 1119.08 427.814C1151.65 402.778 1165.89 345.099 1180.97 284.036C1187.1 259.195 1193.45 233.511 1201.18 209.602C1243.23 79.5968 1342.33 12.365 1409.09 68.5375L1405.37 83.9832C1343.56 31.9642 1248.09 97.2822 1208.92 218.371C1201.45 241.471 1195.22 266.723 1189.19 291.14C1174.04 352.483 1158.38 415.917 1122.52 443.484C1073.68 481.031 1016.96 424.156 994.849 397.96C979.899 380.249 966.396 360.057 953.337 340.534C935.092 313.255 917.86 287.486 896.785 267.43C860.317 232.724 805.457 205.021 770.875 241.154C753.542 259.229 743.223 288.007 732.3 318.484C721.809 347.745 710.962 378.005 692.928 403.566C651.471 462.325 594.355 443.582 571.725 432.793C561.34 427.844 551.037 421.721 541.073 415.798C514.522 400.018 489.455 385.135 461.043 388.997C427.01 393.646 393.803 423.419 361.687 452.21C325.766 484.402 288.744 517.592 249.28 517.592Z" fill="#CFE8F8"/>
<path d="M255.278 518.326C250.96 518.326 246.615 517.903 242.234 517.009C217.69 511.996 195.897 491.169 174.82 471.028C161.144 457.957 147.005 444.447 132.4 435.623C95.5269 413.34 46.0174 430.491 30.3372 497.058L22.0547 490.229C39.7671 415.033 94.5606 394.964 135.183 419.508C150.477 428.751 164.946 442.575 178.938 455.951C200.222 476.291 220.326 495.505 243.214 500.175C283.493 508.397 322.099 473.022 359.438 438.816C392.38 408.636 426.445 377.427 462.25 374.954C492.721 372.858 519.931 385.793 546.257 398.313C555.265 402.598 564.584 407.031 573.89 410.786C594.924 419.276 648.025 433.349 686.666 380.712C703.486 357.802 714.34 331.174 724.835 305.423C737.243 274.981 748.963 246.223 768.823 228.072C805.798 194.187 862.882 221.222 903.973 257.816C925.935 277.377 944.383 303.327 962.222 328.422C974.994 346.391 988.203 364.974 1002.63 381.106C1023.82 404.808 1077.87 456.518 1121.98 424.771C1154.65 401.26 1169.45 345.511 1185.12 286.493C1191.28 263.274 1197.66 239.258 1205.28 216.712C1247.55 91.7032 1344.21 24.2936 1408.09 75.2753L1404.54 90.8522C1345.44 43.6769 1252.33 109.245 1212.93 225.765C1205.56 247.574 1199.29 271.187 1193.23 294.025C1176.75 356.083 1161.19 414.699 1125.23 440.577C1077.41 474.991 1020.32 420.618 997.986 395.646C983.148 379.048 969.747 360.194 956.784 341.958C938.497 316.233 921.226 291.938 900.085 273.105C860.904 238.208 806.893 212.051 772.804 243.281C754.865 259.679 744.286 285.633 732.036 315.691C721.147 342.407 709.886 370.034 691.997 394.401C650.397 451.064 594.211 436.309 571.984 427.337C562.518 423.514 553.12 419.047 544.03 414.724C517.143 401.933 491.739 389.866 462.59 391.873C428.704 394.214 395.519 424.619 363.426 454.02C328.856 485.686 293.23 518.322 255.278 518.326Z" fill="#C7E6F9"/>
<path d="M261.926 519.117C257.482 519.117 253.013 518.664 248.502 517.707C223.594 512.418 201.706 490.55 180.538 469.401C166.92 455.793 152.835 441.719 138.23 432.447C101.051 408.838 50.5797 425.333 33.8699 493.137L25.6484 486.045C44.4674 409.689 100.248 390.441 141.138 416.408C156.444 426.125 170.862 440.529 184.802 454.459C206.16 475.799 226.334 495.952 249.523 500.877C289.483 509.37 327.87 474.329 364.983 440.449C396.73 411.463 429.561 381.49 463.859 377.824C494.136 374.58 521.058 385.123 547.101 395.314C555.804 398.718 564.804 402.241 573.806 405.205C594.517 412.009 646.901 422.344 685.865 371.367C702.518 349.579 713.706 325.466 724.528 302.145C737.909 273.307 750.547 246.066 771.186 229.803C816.599 193.898 886.655 246.37 907.046 263.311C929.07 281.606 947.57 305.981 965.463 329.552C978.136 346.246 991.241 363.513 1005.55 378.577C1032.25 406.67 1083.24 449.641 1124.87 421.734C1157.69 399.743 1173.07 345.874 1189.37 288.838C1195.53 267.265 1201.9 244.961 1209.38 223.824C1251.84 103.786 1346.08 36.1944 1407.08 82.0148L1403.71 97.7314C1347.31 55.3787 1256.54 121.196 1216.93 233.173C1209.68 253.644 1203.41 275.598 1197.35 296.823C1180.21 356.819 1164.02 413.487 1127.92 437.68C1082.92 467.843 1029.15 422.848 1001.12 393.337C986.405 377.853 973.11 360.337 960.254 343.397C941.912 319.233 924.587 296.408 903.376 278.786C883.826 262.549 816.774 212.143 774.707 245.405C756.008 260.144 744.589 284.752 731.366 313.247C720.706 336.22 708.626 362.259 691.056 385.246C649.327 439.848 594.067 429.059 572.245 421.883C563.1 418.877 554.026 415.324 545.252 411.89C518.614 401.471 493.455 391.631 464.382 394.73C431.901 398.206 399.903 427.421 368.959 455.67C334.729 486.917 299.456 519.112 261.926 519.117Z" fill="#BFE3F9"/>
<path d="M268.575 519.919C264.011 519.919 259.417 519.44 254.784 518.42C229.525 512.848 207.554 489.946 186.307 467.798C172.729 453.648 158.689 439.011 144.07 429.29C106.441 404.267 54.6032 422.38 37.4136 489.235L29.2578 481.893C49.1856 404.389 105.948 385.963 147.105 413.336C162.437 423.531 176.811 438.516 190.715 453.009C212.134 475.334 232.367 496.424 255.848 501.602C295.534 510.367 333.692 475.622 370.595 442.034C401.132 414.242 432.709 385.502 465.484 380.713C495.618 376.314 522.292 384.435 548.085 392.293C556.438 394.837 565.078 397.467 573.731 399.647C594.125 404.779 645.801 411.388 685.081 362.037C701.343 341.608 712.724 320.099 723.731 299.301C738.25 271.861 751.964 245.94 773.578 231.57C814.755 204.074 876.81 243.112 910.135 268.829C932.224 285.875 950.796 308.671 968.758 330.714C981.32 346.134 994.309 362.075 1008.49 376.068C1041.61 408.738 1089.19 442.652 1127.78 418.722C1160.8 398.246 1176.81 346.193 1193.76 291.079C1199.88 271.192 1206.2 250.627 1213.49 230.956C1256.15 115.884 1347.93 48.1105 1406.07 88.7697L1402.9 104.634C1349.19 67.0746 1260.76 133.151 1220.93 240.605C1213.86 259.688 1207.63 279.939 1201.61 299.522C1183.77 357.51 1166.92 412.286 1130.63 434.794C1089.01 460.604 1038.94 425.255 1004.27 391.044C989.708 376.674 976.536 360.508 963.795 344.872C945.377 322.267 927.981 300.915 906.686 284.482C874.561 259.688 814.943 221.921 776.617 247.52C756.945 260.603 744.535 284.059 730.165 311.216C719.372 331.607 707.143 354.725 690.13 376.098C648.279 428.68 593.947 421.821 572.528 416.431C563.749 414.225 555.048 411.575 546.632 409.009C520.205 400.956 495.242 393.343 466.19 397.602C435.126 402.141 404.336 430.166 374.557 457.268C340.642 488.121 305.702 519.914 268.575 519.919Z" fill="#B7E0F9"/>
<path d="M275.206 520.712C270.524 520.712 265.81 520.204 261.055 519.116C235.45 513.26 213.404 489.325 192.084 466.178C178.545 451.482 164.544 436.282 149.904 426.112C111.986 399.768 59.1542 417.267 40.9463 485.299L32.8516 477.716C53.8973 399.078 111.631 381.451 153.054 410.234C168.416 420.908 182.756 436.477 196.626 451.528C218.104 474.841 238.389 496.866 262.155 502.298C301.567 511.308 339.536 476.852 376.25 443.522C405.551 416.924 435.85 389.42 467.084 383.585C497.173 377.971 523.65 383.67 549.255 389.183C557.191 390.893 565.397 392.659 573.63 394.077C593.711 397.532 644.688 400.42 684.283 352.69C699.83 333.95 711.69 314.313 722.156 296.987C738.751 269.517 753.08 245.794 775.963 233.333C805.921 216.931 852.099 230.721 913.208 274.322C935.37 290.137 954.033 311.349 972.082 331.858C984.517 345.992 997.378 360.607 1011.41 373.529C1060.42 418.66 1100.55 432.844 1130.68 415.679C1163.97 396.715 1180.64 346.398 1198.3 293.13C1204.32 274.966 1210.55 256.184 1217.6 238.05C1260.42 127.928 1349.75 59.9802 1405.03 95.4951L1402.09 111.512C1351.04 78.7199 1264.95 145.058 1224.92 248.017C1218.06 265.647 1211.92 284.158 1205.99 302.06C1187.41 358.118 1169.86 411.068 1133.32 431.887C1100.92 450.351 1058.55 435.829 1007.41 388.734C993.019 375.481 979.987 360.667 967.382 346.343C948.864 325.296 931.376 305.417 909.981 290.154C850.761 247.902 806.525 234.256 778.498 249.596C757.558 261.002 743.933 283.557 728.153 309.676C717.447 327.404 705.31 347.495 689.182 366.933C647.22 417.517 593.813 414.57 572.799 410.95C564.462 409.514 556.205 407.736 548.219 406.017C521.93 400.356 497.1 395.004 467.982 400.449C438.351 405.983 408.79 432.818 380.201 458.773C346.589 489.279 311.959 520.712 275.206 520.712Z" fill="#AFDDF9"/>
<path d="M281.822 521.518C277.024 521.518 272.191 520.976 267.318 519.824C241.378 513.676 219.264 488.717 197.879 464.583C184.369 449.332 170.397 433.565 155.731 422.95C117.529 395.302 63.7019 412.179 44.4688 481.383L36.4375 473.567C58.6057 393.799 117.312 376.986 158.996 407.153C174.396 418.301 188.709 434.458 202.552 450.077C224.08 474.372 244.412 497.324 268.454 503.019C307.613 512.296 345.414 478.06 381.963 444.945C410.006 419.537 439.002 393.265 468.679 386.478C498.846 379.577 525.224 382.828 550.732 385.978C558.146 386.893 565.815 387.837 573.516 388.536C615.295 392.283 655.375 375.838 683.476 343.355C697.83 326.762 709.299 310.126 719.419 295.451C737.856 268.713 753.778 245.621 778.35 235.138C815.515 219.15 868.926 248.771 916.269 279.836C938.528 294.444 957.309 314.068 975.471 333.049C987.759 345.891 1000.46 359.165 1014.32 371.016C1065 414.368 1104.01 427.988 1133.57 412.657C1167.21 395.209 1183.81 348.774 1203.03 295.007C1208.89 278.621 1214.95 261.681 1221.7 245.16C1264.66 139.974 1351.53 71.8576 1403.96 102.228L1401.28 118.406C1352.89 90.3602 1269.11 156.957 1228.89 255.44C1222.31 271.538 1216.33 288.258 1210.55 304.423C1191.17 358.64 1172.86 409.85 1135.99 428.975C1104.29 445.424 1063.26 431.498 1010.55 386.415C996.363 374.284 983.496 360.837 971.052 347.834C952.402 328.345 934.79 309.94 913.266 295.815C869.842 267.32 815.49 236.539 780.361 251.646C757.736 261.304 743.271 282.279 724.959 308.839C714.662 323.772 702.992 340.696 688.229 357.763C647.678 404.646 598.676 407.775 573.074 405.455C565.294 404.752 557.584 403.799 550.13 402.881C523.886 399.642 499.095 396.585 469.772 403.291C441.588 409.74 414.539 434.246 385.903 460.192C352.567 490.402 318.224 521.518 281.822 521.518Z" fill="#A7DAFA"/>
<path d="M288.445 522.318C283.535 522.318 278.59 521.746 273.6 520.523C247.332 514.083 225.157 488.107 203.715 462.982C190.225 447.181 176.278 430.842 161.578 419.779C123.096 390.822 68.2821 407.081 48.0148 477.446L40.0469 469.41C63.3443 388.515 123.026 372.502 164.957 404.062C180.404 415.684 194.697 432.43 208.519 448.625C230.09 473.898 250.464 497.765 274.777 503.726C313.721 513.265 351.365 479.211 387.77 446.271C414.525 422.061 442.19 397.025 470.29 389.37C500.756 381.071 526.016 381.8 552.762 382.57C559.567 382.765 566.419 382.964 573.412 383.006C597.601 383.256 643.919 376.981 682.691 334.019C695.14 320.224 705.631 306.849 714.889 295.045C736.672 267.27 753.88 245.329 780.76 236.963C818.753 225.019 873.741 257.989 917.926 284.494L919.349 285.349C941.742 298.779 960.683 316.824 978.999 334.277C991.102 345.81 1003.62 357.733 1017.24 368.492C1053.11 396.826 1099.08 427.108 1136.49 409.63C1170.58 393.701 1187.94 348.728 1208.04 296.649C1213.65 282.097 1219.46 267.054 1225.83 252.247C1268.92 151.986 1353.32 83.6916 1402.9 108.952L1400.52 125.291C1354.77 101.987 1273.29 168.833 1232.88 262.862C1226.66 277.33 1220.92 292.191 1215.37 306.565C1195.11 359.054 1175.98 408.63 1138.68 426.062C1098.68 444.751 1050.89 413.453 1013.72 384.094C999.796 373.099 987.135 361.036 974.89 349.367C956.064 331.432 938.284 314.487 916.586 301.472L915.163 300.617C871.915 274.679 818.085 242.399 782.253 253.662C757.331 261.423 741.667 281.394 719.985 309.038C710.616 320.982 699.998 334.523 687.303 348.588C646.664 393.617 598.553 400.154 573.384 399.938C566.353 399.896 559.465 399.697 552.622 399.498C526.249 398.74 501.34 398.02 471.593 406.12C444.874 413.398 419.049 436.77 391.71 461.509C358.614 491.473 324.524 522.318 288.445 522.318Z" fill="#9FD7FA"/>
<path d="M295.051 523.126C290.03 523.126 284.972 522.52 279.871 521.229C253.281 514.488 231.054 487.497 209.56 461.394C196.089 445.034 182.16 428.119 167.417 416.611C128.661 386.355 72.8535 401.995 51.5475 473.507L43.6406 465.264C67.3024 385.851 128.55 367.911 170.902 400.979C186.401 413.075 200.678 430.418 214.487 447.185C236.096 473.427 256.506 498.213 281.086 504.441C319.829 514.251 357.356 480.324 393.64 447.498C419.076 424.486 445.377 400.695 471.883 392.274C503.092 382.358 528.738 380.613 555.892 378.763C561.624 378.373 567.403 377.98 573.289 377.501C597.08 375.575 642.826 366.15 681.892 324.695C691.349 314.66 699.858 305.024 707.367 296.522C733.875 266.498 753.029 244.808 783.159 238.829C816.882 232.034 863.506 258.068 904.644 281.038C910.709 284.425 916.654 287.74 922.413 290.878C944.998 303.161 963.305 318.907 982.686 335.58C994.548 345.784 1006.81 356.331 1020.14 365.985C1061.22 395.754 1104.11 421.277 1139.4 406.618C1174.07 392.219 1192.27 348.566 1213.35 298.02C1218.62 285.386 1224.07 272.32 1229.94 259.351C1273.14 164.006 1355.05 95.5334 1401.8 115.692L1399.77 132.191C1356.63 113.596 1277.44 180.705 1236.85 270.3C1231.09 283.007 1225.7 295.937 1220.49 308.436C1199.26 359.346 1179.2 407.431 1141.36 423.152C1103.72 438.788 1059.28 412.508 1016.87 381.782C1003.28 371.938 990.891 361.281 978.904 350.971C959.836 334.573 941.828 319.08 919.886 307.145C914.106 303.999 908.141 300.671 902.056 297.271C861.734 274.759 816.026 249.236 784.12 255.672C755.989 261.257 738.51 281.051 712.053 311.015C704.495 319.576 695.925 329.28 686.357 339.433C645.642 382.641 598.284 392.435 573.679 394.429C567.77 394.907 561.97 395.301 556.218 395.695C529.372 397.524 504.015 399.247 473.395 408.977C448.156 417 423.586 439.225 397.576 462.753C364.701 492.493 330.84 523.121 295.051 523.126Z" fill="#97D4FA"/>
<path d="M301.648 523.932C296.518 523.936 291.351 523.297 286.14 521.934C259.233 514.892 236.958 486.889 215.417 459.812C201.959 442.897 188.044 425.403 173.255 413.446C134.235 381.902 77.4361 396.929 55.0801 469.576L47.2344 461.125C72.0005 380.653 134.246 363.463 176.847 397.898C192.4 410.473 206.668 428.409 220.466 445.755C242.109 472.959 262.55 498.659 287.393 505.163C325.968 515.252 363.405 481.38 399.599 448.613C423.682 426.812 448.581 404.271 473.476 395.185C506.439 383.156 533.237 378.689 561.608 373.959C565.421 373.324 569.266 372.685 573.163 372.02C596.576 368.023 641.731 355.351 681.096 315.378C685.902 310.5 690.438 305.83 694.762 301.38C729.673 265.463 750.746 243.781 785.557 240.724C815.626 238.01 855.02 259.116 893.112 279.545C904.439 285.621 915.136 291.354 925.478 296.409C948.365 307.6 966.972 321.873 986.673 336.984C998.203 345.824 1010.12 354.97 1023.04 363.485C1057.47 386.187 1104.62 417.282 1142.31 403.61C1177.73 390.76 1196.89 348.246 1219.08 299.022C1223.87 288.407 1228.81 277.424 1234.07 266.445C1277.33 176.003 1356.73 107.357 1400.68 122.426L1399.05 139.086C1358.49 125.157 1281.57 192.549 1240.81 277.742C1235.65 288.534 1230.74 299.42 1226 309.941C1203.67 359.466 1182.58 406.248 1144.03 420.237C1103.94 434.798 1055.44 402.806 1020.03 379.459C1006.9 370.805 994.872 361.579 983.24 352.654C963.828 337.767 945.492 323.706 923.19 312.799C912.744 307.693 901.997 301.931 890.621 295.829C853.234 275.781 814.582 255.039 785.992 257.647C753.269 260.522 732.891 281.489 699.125 316.225C694.789 320.687 690.236 325.37 685.416 330.264C644.626 371.69 598.092 384.773 573.987 388.889C570.083 389.553 566.231 390.197 562.411 390.836C534.28 395.523 507.713 399.952 475.21 411.816C451.469 420.478 428.189 441.555 403.543 463.864C370.852 493.452 337.184 523.928 301.648 523.932Z" fill="#8FD1FA"/>
<path d="M308.235 524.739C302.996 524.743 297.723 524.074 292.403 522.634C265.188 515.28 242.871 486.277 221.289 458.231C207.84 440.753 193.931 422.678 179.091 410.276C139.805 377.446 82.0178 391.854 58.605 465.632L50.8203 456.986C76.693 375.456 139.943 359.02 182.779 394.814C198.396 407.863 212.66 426.4 226.453 444.322C248.125 472.487 268.596 499.093 293.697 505.876C332.148 516.258 369.516 482.373 405.651 449.594C428.34 429.012 451.8 407.728 475.059 398.1C513.238 382.294 543.632 374.287 573.026 366.552C596.066 360.485 640.635 344.56 680.294 306.052C723.782 263.826 748.355 241.776 787.948 242.644C814.747 243.114 849.334 261.413 882.785 279.115C898.131 287.232 913.997 295.628 928.536 301.949C951.926 312.111 970.999 324.961 991.194 338.565C1002.22 345.992 1013.62 353.672 1025.93 360.984L1033.21 365.337C1067.52 385.88 1110.2 411.458 1145.22 400.602C1181.6 389.327 1201.88 347.719 1225.36 299.536C1229.48 291.072 1233.74 282.325 1238.19 273.531C1281.5 187.987 1358.41 119.197 1399.52 129.168L1398.35 145.964C1360.31 136.7 1285.67 204.377 1244.77 285.179C1240.37 293.854 1236.14 302.546 1232.04 310.947C1207.43 361.458 1186.17 405.077 1146.7 417.313C1109.53 428.83 1065.68 402.571 1030.45 381.468L1023.19 377.128C1010.72 369.715 999.234 361.979 988.127 354.498C968.19 341.067 949.362 328.387 926.488 318.445C911.74 312.035 895.768 303.584 880.323 295.412C847.447 278.019 813.452 260.029 787.858 259.584C750.268 258.805 727.805 279.005 684.464 321.091C643.609 360.76 597.899 377.112 574.287 383.327C545.065 391.02 514.847 398.976 477.015 414.642C454.792 423.842 432.839 443.755 409.598 464.836C377.063 494.343 343.555 524.734 308.235 524.739Z" fill="#87CEFB"/>
<path d="M314.833 525.546C309.493 525.546 304.114 524.847 298.687 523.331C271.167 515.659 248.813 485.661 227.195 456.65C213.75 438.609 199.847 419.95 184.947 407.099C145.404 372.994 86.6251 386.785 62.1533 461.676L54.4297 452.844C81.4112 370.259 145.657 354.564 188.738 391.721C204.422 405.249 218.682 424.387 232.472 442.894C254.17 472.015 274.668 499.515 300.022 506.586C338.375 517.268 375.723 483.286 411.834 450.413C433.083 431.068 455.057 411.067 476.662 401.015C512.55 384.32 540.435 372.757 572.908 361.101C595.57 352.972 639.551 333.796 679.513 296.727C722.928 256.462 749.222 239.382 790.354 244.586C814.118 247.524 842.898 262.91 873.371 279.199C892.908 289.64 913.112 300.441 931.614 307.486C955.905 316.737 975.769 328.266 996.797 340.469C1006.99 346.388 1017.53 352.502 1028.83 358.489C1033.62 361.021 1038.56 363.735 1043.63 366.512C1077.34 385.002 1115.55 405.956 1148.15 397.602C1185.77 387.957 1206.34 348.882 1232.39 299.407C1235.63 293.247 1238.94 286.968 1242.35 280.617C1285.65 199.976 1359.97 130.983 1398.34 135.933L1397.72 152.826C1362.18 148.253 1289.76 216.201 1248.73 292.62C1245.35 298.929 1242.06 305.17 1238.84 311.292C1212.67 361.012 1190.06 403.953 1149.39 414.382C1114.86 423.235 1075.67 401.735 1041.09 382.767C1036.05 380.006 1031.13 377.309 1026.37 374.79C1014.96 368.748 1004.36 362.6 994.12 356.651C973.314 344.576 953.662 333.169 929.813 324.087C910.966 316.911 890.591 306.021 870.887 295.487C840.893 279.453 812.563 264.312 789.754 261.492C750.713 256.542 725.438 273.047 683.537 311.91C642.613 349.868 597.729 369.446 574.617 377.741C542.315 389.333 514.569 400.841 478.848 417.456C458.164 427.075 437.587 445.811 415.796 465.647C383.37 495.158 349.984 525.546 314.833 525.546Z" fill="#7FCBFB"/>
<path d="M321.411 526.36C315.966 526.36 310.481 525.627 304.95 524.035C277.133 516.042 254.746 485.053 233.096 455.089C219.651 436.48 205.748 417.232 190.785 403.938C150.986 368.558 91.2158 381.73 65.6803 457.731L58.0156 448.717C86.1151 365.099 151.355 350.14 194.67 388.64C210.425 402.646 224.687 422.385 238.479 441.476C260.202 471.542 280.72 499.944 306.324 507.298C344.636 518.324 381.998 484.121 418.124 451.062C437.882 432.979 458.315 414.277 478.238 403.942C488.469 398.637 497.989 393.607 507.093 388.793C530.278 376.539 550.3 365.959 572.767 355.679C595.051 345.483 638.444 323.055 678.709 287.418C724.276 247.089 751.982 237.16 792.729 246.564C813.632 251.323 838.435 264.99 864.694 279.462C888.128 292.376 912.36 305.73 934.668 313.034C960.842 321.607 982.288 332.082 1004.99 343.171C1013.53 347.342 1022.36 351.656 1031.72 356C1038.79 359.282 1046.04 362.957 1053.73 366.844C1085.13 382.734 1120.72 400.741 1151.07 394.606C1190.32 386.667 1212.44 347.685 1240.44 298.333C1242.43 294.827 1244.44 291.284 1246.49 287.697C1289.73 211.968 1361.51 142.865 1397.09 142.721L1397.11 159.657C1364 159.792 1293.81 228.027 1252.67 300.061C1250.63 303.634 1248.63 307.169 1246.65 310.658C1218.56 360.145 1194.31 402.888 1152.04 411.44C1120.01 417.927 1083.54 399.471 1051.36 383.191C1043.73 379.325 1036.51 375.676 1029.53 372.432C1020.12 368.063 1011.27 363.736 1002.7 359.553C980.183 348.553 958.914 338.162 933.107 329.711C910.291 322.238 885.81 308.749 862.135 295.7C836.244 281.431 811.793 267.958 791.627 263.364C752.844 254.41 726.347 263.978 682.578 302.72C641.591 338.996 597.531 361.775 574.915 372.123C552.604 382.332 532.651 392.874 509.549 405.085C500.431 409.903 490.897 414.942 480.65 420.256C461.535 430.172 442.376 447.705 422.096 466.266C389.753 495.879 356.446 526.36 321.411 526.36Z" fill="#78C9FB"/>
<path d="M327.987 527.18C322.441 527.18 316.856 526.41 311.219 524.741C283.11 516.417 260.691 484.446 239.014 453.525C225.565 434.345 211.659 414.513 196.63 400.765C156.573 364.116 95.8211 376.674 69.213 453.771L61.6094 444.583C90.8245 359.933 157.069 345.715 200.606 385.548C216.436 400.029 230.704 420.377 244.501 440.057C266.244 471.067 286.781 500.358 312.633 508.013C350.968 519.377 388.38 484.865 424.562 451.501C443.612 433.935 461.605 417.346 479.82 406.875C497.15 396.912 512.285 387.331 526.919 378.063C542.305 368.32 556.836 359.116 572.636 350.275C594.526 338.022 637.31 312.355 677.917 278.102C726.897 236.787 756.888 235.842 795.105 248.557C813.277 254.553 834.37 266.738 856.702 279.643C883.756 295.275 911.728 311.441 937.732 318.592C969.33 327.276 994.169 337.268 1022.93 348.835L1034.6 353.522C1043.87 357.227 1053.46 361.745 1063.62 366.525C1094.19 380.912 1125.79 395.782 1153.99 391.62C1195.4 385.506 1219.48 345.965 1249.96 295.902L1250.64 294.784C1293.74 224.008 1362.93 154.795 1395.79 149.57L1396.56 166.443C1365.81 171.333 1297.8 239.89 1256.61 307.511L1255.93 308.629C1224.18 360.763 1199.11 401.947 1154.71 408.501C1125.04 412.909 1091.24 396.984 1061.42 382.949C1051.34 378.207 1041.82 373.727 1032.71 370.082L1021.03 365.39C992.424 353.887 967.721 343.949 936.417 335.346C909.726 328.008 881.413 311.644 854.034 295.821C831.981 283.081 811.15 271.044 793.53 265.231C756.268 252.834 728.732 253.807 681.642 293.539C640.555 328.199 597.337 354.128 575.234 366.5C559.588 375.256 545.132 384.409 529.825 394.105C515.129 403.412 499.933 413.036 482.481 423.066C464.959 433.134 447.283 449.44 428.566 466.693C396.239 496.496 362.959 527.176 327.987 527.18Z" fill="#70C6FB"/>
<path d="M334.574 527.998C328.925 528.002 323.238 527.193 317.5 525.44C289.104 516.777 266.659 483.828 244.953 451.968C231.499 432.216 217.587 411.795 202.488 397.594C157.256 355.047 97.8431 378.969 72.758 449.812L65.2109 440.46C92.6994 362.825 157.427 336.265 206.552 382.462C222.461 397.421 236.736 418.379 250.54 438.643C272.303 470.589 292.858 500.764 318.955 508.724C357.358 520.444 394.887 485.492 431.178 451.692C448.538 435.523 464.935 420.251 481.407 409.818C500.889 397.48 517.543 384.986 533.646 372.906C546.71 363.108 559.05 353.849 572.515 344.894C593.943 330.638 636.028 301.796 677.131 268.788C724.945 230.394 756.317 232.769 797.478 250.569C813.036 257.258 830.678 268.093 849.359 279.567C878.346 297.371 911.202 317.551 940.804 324.147C976.127 332.018 1003.24 339.559 1037.5 351.05C1048.91 354.878 1060.8 360.128 1073.38 365.687C1101.62 378.156 1130.82 391.057 1156.93 388.631C1197.85 384.846 1222.25 351.816 1254.81 301.855C1297.65 236.122 1364.2 166.828 1394.44 156.48L1396.07 173.141C1367.56 182.905 1301.69 251.822 1260.55 314.955C1227.64 365.458 1200.97 401.515 1157.37 405.55C1129.96 408.061 1100.15 394.91 1071.3 382.174C1058.84 376.67 1047.07 371.471 1035.89 367.724C1001.83 356.296 974.864 348.793 939.732 340.965C909.231 334.169 875.922 313.71 846.533 295.661C828.056 284.309 810.604 273.593 795.442 267.077C756.147 250.082 726.224 247.795 680.699 284.352C639.364 317.546 597.073 346.528 575.543 360.847C562.246 369.692 549.989 378.889 537.011 388.623C520.795 400.791 504.024 413.37 484.306 425.861C468.416 435.925 452.285 450.947 435.206 466.854C402.864 496.979 369.557 527.993 334.574 527.998Z" fill="#68C3FC"/>
<path d="M341.152 528.827C335.402 528.827 329.611 527.98 323.768 526.147C295.092 517.141 272.625 483.222 250.898 450.426C237.433 430.102 223.514 409.081 208.338 394.431C162.827 350.486 102.36 374.031 76.2952 445.857L68.8047 436.343C97.3115 357.786 163.108 331.704 212.488 379.383C228.479 394.82 242.765 416.388 256.582 437.245C278.359 470.122 298.93 501.17 325.266 509.448C363.839 521.561 401.536 485.983 437.995 451.581C453.58 436.873 468.303 422.985 482.985 412.777C503.356 398.614 520.523 383.621 537.127 369.124C548.967 358.785 560.15 349.017 572.391 339.537C601.758 316.792 640.113 287.141 676.339 259.485C723.375 223.58 756.027 229.368 799.83 252.609C812.883 259.497 827.339 269.032 842.643 279.13C874.569 300.19 910.754 324.057 943.868 329.723C950.791 330.908 957.397 331.996 963.796 333.055C990.144 337.399 1012.9 341.154 1040.38 348.598C1053.71 352.214 1067.62 358.438 1082.34 365.03C1108.47 376.728 1135.49 388.833 1159.63 385.688C1201.63 380.217 1227.86 353.408 1258.98 308.951C1300.53 249.602 1365.67 178.933 1393.04 163.529L1395.64 179.746C1369.09 194.692 1305.35 264.028 1264.48 322.415C1231.99 368.824 1204.53 396.819 1160.26 402.586C1134.74 405.913 1107.03 393.504 1080.23 381.504C1065.72 375.005 1052.01 368.87 1039.08 365.364C1011.85 357.985 989.214 354.25 963.002 349.927C956.591 348.869 949.976 347.781 943.045 346.591C908.81 340.735 872.057 316.495 839.633 295.105C824.469 285.105 810.147 275.654 797.367 268.91C754.559 246.198 724.619 240.931 679.758 275.172C643.55 302.811 605.211 332.454 575.851 355.19C563.796 364.526 552.701 374.213 540.956 384.472C524.189 399.114 506.853 414.255 486.137 428.654C471.926 438.532 457.422 452.221 442.07 466.705C409.626 497.313 376.231 528.827 341.152 528.827Z" fill="#60C0FC"/>
<path d="M347.291 529.566C341.557 529.57 335.802 528.711 330.029 526.844C301.074 517.482 278.587 482.602 256.84 448.87C243.364 427.971 229.43 406.361 214.18 391.258C168.393 345.912 106.865 369.093 79.8223 441.888L72.3906 432.222C101.916 352.754 168.787 327.142 218.414 376.295C234.488 392.215 248.788 414.388 262.615 435.838C284.407 469.638 304.991 501.567 331.57 510.162C370.392 522.72 408.344 486.303 445.043 451.089C458.756 437.929 471.708 425.503 484.55 415.735C505.299 399.959 522.593 382.638 539.316 365.888C549.882 355.303 560.808 344.358 572.263 334.192C597.977 311.371 636.767 278.269 675.537 250.181C726.782 213.044 763.202 230.239 802.162 254.652C812.823 261.308 824.357 269.535 836.568 278.244C871.178 302.937 910.405 330.915 946.925 335.293C959.715 336.826 971.487 337.749 982.87 338.638C1002.77 340.196 1021.57 341.665 1043.25 346.145C1058.35 349.261 1074.07 356.01 1090.71 363.157C1114.95 373.56 1140 384.314 1162.56 382.71C1201.28 379.945 1228.54 361.874 1263.15 316.032C1302.53 263.895 1366.13 191.913 1391.57 170.713L1395.25 186.184C1372.8 204.903 1311.2 273.163 1268.38 329.856C1232.17 377.819 1203.58 396.728 1162.91 399.633C1139.16 401.339 1113.5 390.314 1088.69 379.665C1072.31 372.633 1056.83 365.989 1042.26 362.979C1020.88 358.563 1002.24 357.107 982.494 355.561C971.062 354.668 959.24 353.74 946.348 352.199C908.463 347.66 868.555 319.191 833.346 294.075C821.227 285.429 809.781 277.266 799.297 270.72C760.7 246.535 727.325 230.823 678.809 265.978C640.297 293.884 601.725 326.8 576.146 349.502C564.89 359.49 554.546 369.855 543.593 380.825C526.662 397.787 509.153 415.324 487.963 431.435C475.489 440.919 462.708 453.18 449.177 466.166C417.932 496.134 383.089 529.566 347.291 529.566Z" fill="#58BDFC"/>
<path d="M353.876 530.401C348.04 530.401 342.181 529.503 336.302 527.547C307.073 517.817 284.57 481.985 262.805 447.334C249.315 425.859 235.366 403.652 220.037 388.092C173.981 341.357 111.393 364.174 83.3617 437.922L75.9844 428.107C106.53 347.733 174.472 322.587 224.352 373.209C240.515 389.612 254.828 412.399 268.671 434.437C290.477 469.156 311.072 501.948 337.886 510.874C377.092 523.927 415.384 486.401 452.407 450.107C464.129 438.62 475.199 427.764 486.13 418.703C506.999 401.399 524.229 381.842 540.892 362.929C550.91 351.561 561.267 339.803 572.157 328.862C597.326 303.577 635.554 267.782 674.747 240.875C725.802 205.822 763.714 227.305 804.493 256.706C808.005 259.23 811.624 261.846 815.333 264.531C855.181 293.364 904.772 329.243 950.437 340.937C969.281 345.76 985.703 344.625 1003.09 343.427C1016.73 342.483 1030.83 341.509 1046.13 343.69C1064 346.234 1083.5 353.86 1102.35 361.24C1123.65 369.572 1145.68 378.188 1165.72 379.729C1203.14 382.596 1231.63 366.727 1267.35 323.104C1300.44 282.686 1346.04 229.49 1373.28 197.701C1380.12 189.724 1385.88 183.013 1390.09 178.072L1394.9 192.421C1390.68 197.371 1384.92 204.086 1378.07 212.076C1350.86 243.826 1305.31 296.963 1272.29 337.288C1241.04 375.453 1210.91 400.12 1165.35 396.653C1144.56 395.052 1122.16 386.292 1100.5 377.816C1081.07 370.216 1062.72 363.035 1045.44 360.575C1030.65 358.47 1016.81 359.427 1003.42 360.35C986.412 361.519 968.828 362.738 949.208 357.713C902.494 345.747 852.355 309.47 812.067 280.323C808.365 277.643 804.753 275.031 801.241 272.507C760.806 243.352 726.047 223.685 677.863 256.77C639.168 283.338 601.349 318.751 576.439 343.783C565.757 354.512 555.958 365.634 545.585 377.409C528.678 396.602 511.197 416.442 489.793 434.187C479.135 443.024 468.191 453.753 456.605 465.108C425.113 495.978 389.998 530.397 353.876 530.401Z" fill="#50BAFC"/>
<path d="M360.479 531.236C354.536 531.236 348.566 530.296 342.576 528.242C313.083 518.14 290.564 481.363 268.783 445.794C255.277 423.739 241.312 400.934 225.897 384.917C179.571 336.789 115.92 359.238 86.9067 433.943L79.5859 423.984C111.152 342.708 180.166 318.037 230.292 370.111C246.544 386.992 260.876 410.397 274.737 433.032C296.554 468.661 317.163 502.313 344.208 511.582C383.977 525.211 424.455 484.446 460.163 448.486C469.742 438.837 478.787 429.725 487.706 421.681C508.552 402.878 525.618 381.149 542.122 360.131C551.705 347.929 561.615 335.307 572.063 323.545C596.752 295.74 634.472 257.211 673.963 231.566C725.174 198.312 762.864 223.004 806.814 258.756L807.155 259.032C847.579 291.828 902.943 336.742 953.482 346.481C972.075 350.067 988.314 347.412 1005.51 344.609C1019.29 342.357 1033.54 340.024 1049.02 341.247C1069.09 342.818 1090.94 351.261 1112.07 359.428C1131.05 366.762 1150.67 374.349 1168.66 376.771C1208.03 382.072 1236.88 369.006 1271.55 330.18C1315.06 281.463 1370.87 214.249 1388.62 185.631L1394.53 198.46C1376.4 227.691 1320.03 295.63 1276.2 344.711C1240.24 384.972 1208.9 399.16 1168.01 393.66C1149.43 391.162 1129.5 383.461 1110.24 376.013C1089.46 367.985 1067.98 359.682 1048.64 358.167C1033.74 357.011 1019.79 359.28 1006.29 361.482C989.432 364.234 972.007 367.075 952.55 363.328C900.621 353.323 844.517 307.803 803.55 274.57L803.204 274.291C761.088 240.029 725.047 216.31 676.925 247.562C638.169 272.733 601.045 310.661 576.725 338.051C566.494 349.572 556.691 362.058 547.209 374.129C530.431 395.494 513.083 417.582 491.632 436.932C482.897 444.811 473.936 453.834 464.449 463.39C432.604 495.475 397.094 531.232 360.479 531.236Z" fill="#48B7FD"/>
<path d="M367.095 532.091C361.039 532.091 354.954 531.104 348.842 528.945C319.086 518.453 296.551 480.741 274.758 444.265C261.235 421.63 247.249 398.224 231.748 381.754C185.16 332.254 120.448 354.326 90.4406 429.971L83.1719 419.877C115.763 337.716 185.85 313.515 236.217 367.028C252.561 384.396 266.912 408.416 280.791 431.643C302.62 468.174 323.238 502.686 350.514 512.301C391.091 526.595 432.171 483.777 468.418 445.988C475.664 438.43 482.509 431.296 489.269 424.674C509.993 404.376 526.836 380.518 543.125 357.442C552.349 344.376 561.886 330.866 571.965 318.248C596.192 287.912 633.414 246.634 673.163 222.272C724.671 190.695 763.587 219.672 809.11 260.831C854.317 301.617 906.719 345.668 956.507 352.053C976.011 354.551 993.011 350.372 1011.01 345.939C1023.93 342.755 1037.3 339.465 1051.75 338.83C1074.65 337.818 1099.41 347.857 1123.36 357.561C1139.49 364.098 1156.18 370.856 1171.59 373.828C1212.39 381.695 1242.57 371.106 1275.75 337.276C1316.35 295.884 1372.11 226.607 1387.2 193.379L1394.1 204.345C1378.13 239.513 1322.25 309.162 1280.08 352.15C1245.14 387.762 1213.45 398.919 1170.66 390.675C1154.75 387.61 1137.82 380.751 1121.45 374.116C1098.01 364.619 1073.8 354.783 1051.96 355.762C1038 356.375 1024.88 359.606 1012.19 362.731C994.545 367.075 976.299 371.571 955.889 368.946C904.494 362.354 851.144 317.554 805.174 276.077C761.512 236.6 724.277 208.757 675.981 238.361C637.209 262.126 600.752 302.574 576.998 332.318C567.138 344.66 557.708 358.022 548.588 370.94C532.005 394.431 514.856 418.725 493.467 439.675C486.811 446.196 480.018 453.275 472.824 460.778C440.483 494.501 404.427 532.087 367.095 532.091Z" fill="#40B4FD"/>
<path d="M373.759 532.952C367.579 532.952 361.361 531.91 355.108 529.641C325.096 518.751 302.55 480.107 280.746 442.734C267.202 419.519 253.197 395.516 237.605 378.584C190.75 327.708 124.978 349.412 93.98 425.992L86.7656 415.767C120.385 332.721 191.539 308.986 242.151 363.935C258.592 381.785 272.964 406.423 286.863 430.248C308.701 467.68 329.33 503.034 356.832 513.014C398.53 528.146 440.418 482.508 477.372 442.238C481.964 437.234 486.458 432.339 490.839 427.682C511.371 405.872 527.955 379.922 543.995 354.823C552.906 340.88 562.123 326.455 571.884 312.957C595.649 280.088 632.373 236.063 672.371 212.975C724.381 182.952 764.436 216.252 811.402 262.903L818.931 270.397C859.71 311.035 910.467 361.627 959.189 357.634C975.641 356.292 990.769 351.618 1005.4 347.1C1021.01 342.278 1037.16 337.29 1054.77 336.413C1079.44 335.194 1106.06 345.733 1131.78 355.932C1146.7 361.847 1160.79 367.436 1174.53 370.895C1217.26 381.654 1247.81 373.982 1279.97 344.382C1319.84 307.686 1373.14 239.87 1385.88 201.234L1393.58 210.122C1379.84 251.827 1325.81 321.069 1283.96 359.578C1250.05 390.795 1217.99 398.941 1173.32 387.679C1159.24 384.135 1144.33 378.22 1129.9 372.5C1104.7 362.503 1078.65 352.202 1055.01 353.345C1038.02 354.188 1022.89 358.862 1006.87 363.807C991.977 368.406 976.577 373.165 959.585 374.553C908.394 378.741 856.429 326.95 814.677 285.343L807.161 277.866C762.074 233.083 723.714 201.061 675.042 229.162C636.261 251.551 600.465 294.497 577.265 326.582C567.722 339.779 558.613 354.031 549.804 367.817C533.456 393.399 516.554 419.849 495.309 442.412C490.957 447.035 486.492 451.9 481.928 456.871C448.913 492.847 412.108 532.952 373.759 532.952Z" fill="#38B1FD"/>
<path d="M380.028 533.734C373.83 533.734 367.609 532.667 361.379 530.342C331.118 519.042 308.561 479.475 286.748 441.216C273.181 417.417 259.153 392.813 243.468 375.42C196.353 323.177 129.518 344.507 97.524 422.015L90.3594 411.663C125.006 327.732 197.231 304.466 248.082 360.851C264.62 379.188 279.015 404.44 292.939 428.862C314.788 467.184 335.425 503.38 363.153 513.736C406.48 529.923 451.305 478.167 487.318 436.584L492.412 430.712C512.698 407.366 529.005 379.353 544.778 352.256C553.413 337.42 562.345 322.076 571.818 307.684C605.722 256.19 639.289 221.205 671.584 203.693C728.439 172.857 775.708 223.944 813.688 264.984L816.152 267.643C858.382 313.239 910.964 369.988 962.262 363.243C978.874 361.062 994.206 354.805 1009.03 348.754C1024.41 342.479 1040.32 335.984 1057.65 334.016C1084.79 330.954 1113.8 342.894 1141.86 354.457C1154.25 359.564 1165.96 364.386 1177.47 367.977C1215.2 379.734 1247.79 381.436 1284.2 351.494C1323.52 319.167 1374.84 251.406 1384.67 209.117L1392.97 215.87C1382.01 262.999 1328.77 333.347 1287.84 366.999C1247.12 400.485 1210.01 395.286 1175.98 384.68C1164.24 381.021 1151.87 375.924 1139.91 370.995C1112.46 359.682 1084.08 347.979 1058.2 350.922C1041.57 352.81 1026.7 358.878 1010.96 365.301C995.82 371.478 980.162 377.871 962.895 380.137C908.799 387.216 854.924 329.058 811.626 282.314L809.162 279.651C762.75 229.499 723.336 193.26 674.103 219.96C642.978 236.837 610.481 270.776 577.523 320.831C568.263 334.896 559.435 350.062 550.899 364.729C534.814 392.364 518.181 420.94 497.155 445.137L492.075 450.997C459.678 488.396 420.415 533.734 380.028 533.734Z" fill="#30AEFD"/>
<path d="M386.843 534.661C380.468 534.661 374.069 533.518 367.642 531.045C337.139 519.313 314.573 478.84 292.751 439.701C279.157 415.321 265.102 390.112 249.322 372.257C201.944 318.646 134.048 339.617 101.06 418.04L93.9453 407.565C129.619 322.758 202.917 299.957 254.006 357.764C270.644 376.589 285.066 402.458 299.015 427.473C320.87 466.676 341.516 503.706 369.464 514.452C411.569 530.656 454.061 483.459 493.971 433.739C513.962 408.835 529.981 378.782 545.472 349.715C553.86 333.978 562.534 317.698 571.749 302.405C604.983 247.236 638.301 210.899 670.782 194.404C728.513 165.083 776.995 221.624 815.948 267.059C856.328 314.107 911.636 378.541 965.325 368.853C982.026 365.834 997.498 357.98 1012.46 350.38C1027.67 342.653 1043.4 334.664 1060.53 331.628C1090.2 326.378 1121.68 340.075 1152.13 353.331C1161.94 357.603 1171.2 361.638 1180.4 365.064C1219.73 379.701 1253.15 384.206 1288.43 358.624C1327.35 330.396 1376.29 263.812 1383.54 216.958L1392.24 221.666C1384.04 274.655 1332.67 344.694 1291.7 374.412C1254.39 401.472 1219.52 396.886 1178.63 381.669C1169.29 378.193 1159.52 373.938 1150.07 369.827C1120.34 356.875 1089.59 343.487 1061.38 348.492C1045.03 351.392 1030.36 358.84 1014.84 366.728C999.512 374.514 983.662 382.563 966.196 385.717C962.225 386.433 958.244 386.776 954.275 386.776C901.565 386.78 849.739 326.386 811.164 281.442C765.162 227.784 723.032 185.423 673.158 210.76C642.038 226.565 609.942 261.665 577.762 315.085C568.755 330.04 560.179 346.129 551.885 361.689C536.078 391.34 519.735 422.007 498.99 447.847C463.348 492.24 425.619 534.661 386.843 534.661Z" fill="#28ACFE"/>
<path d="M393.019 535.422C386.658 535.426 380.283 534.262 373.908 531.739C343.165 519.562 320.594 478.191 298.766 438.184C285.145 413.22 271.062 387.41 255.185 369.089C207.545 314.123 138.587 334.713 104.602 414.059L97.5391 403.465C134.236 317.794 208.606 295.451 259.938 354.677C276.677 373.988 291.126 400.476 305.102 426.087C326.969 466.162 347.621 504.018 375.784 515.171C418 531.899 461.959 482.065 495.539 436.787C515.193 410.286 530.921 378.218 546.128 347.204C554.29 330.56 562.731 313.344 571.704 297.132C604.264 238.288 637.333 200.601 669.99 185.117C724.333 159.345 769.267 207.918 818.206 269.133C866.03 328.896 917.008 386.262 968.396 374.462C985.147 370.618 1000.72 361.142 1015.77 351.98C1030.85 342.809 1046.43 333.325 1063.41 329.234C1095.74 321.44 1129.74 337.326 1162.61 352.691C1169.78 356.04 1176.55 359.203 1183.33 362.141C1217.81 377.079 1254.65 389.662 1292.67 365.744C1331.22 341.488 1377.83 276.009 1382.5 224.688L1391.43 227.534C1386.08 286.259 1336.61 355.964 1295.55 381.795C1255.29 407.128 1217.03 394.129 1181.29 378.641C1174.43 375.669 1167.31 372.341 1160.42 369.123C1128.36 354.139 1095.21 338.647 1064.56 346.031C1048.43 349.922 1033.92 358.745 1018.57 368.086C1003.11 377.498 987.113 387.228 969.494 391.271C964.519 392.414 959.552 392.96 954.608 392.96C905.447 392.965 857.915 339.121 813.173 283.211C766.063 224.286 722.937 177.479 672.208 201.528C641.099 216.28 609.399 252.544 577.986 309.309C569.21 325.166 560.864 342.186 552.79 358.648C537.273 390.289 521.228 423.009 500.823 450.522C470.633 491.244 432.248 535.418 393.019 535.422Z" fill="#20A9FE"/>
<path d="M399.37 536.243C392.794 536.243 386.392 534.977 380.171 532.436C349.252 519.819 326.717 477.627 304.927 436.828C291.243 411.208 277.095 384.712 261.05 365.93C213.213 309.436 143.196 329.653 108.14 410.065L101.125 399.362C138.926 312.649 214.369 290.776 265.866 351.589C282.766 371.375 297.287 398.562 311.329 424.855C333.158 465.726 353.776 504.327 382.099 515.886C414.713 529.206 453.404 503.611 497.099 439.847C516.373 411.721 531.809 377.65 546.738 344.701C554.692 327.147 562.918 308.991 571.66 291.86C603.55 229.349 636.366 190.312 669.19 175.832C729.114 149.399 781.905 219.798 820.45 271.203C865.776 331.605 918.551 394.81 971.461 380.084C988.235 375.41 1003.87 364.317 1019 353.588C1033.96 342.973 1049.43 331.994 1066.28 326.859C1101.41 316.155 1137.98 334.751 1173.34 352.733C1177.69 354.939 1182 357.132 1186.26 359.24C1224.92 378.391 1259.94 392.638 1296.91 372.895C1335.1 352.495 1379.4 288.045 1381.53 232.326L1390.55 233.528C1388.11 297.868 1340.55 367.2 1299.39 389.183C1260.26 410.074 1222.45 394.687 1183.94 375.617C1179.66 373.496 1175.33 371.294 1170.97 369.08C1136.54 351.568 1100.93 333.459 1067.74 343.579C1051.79 348.439 1037.42 358.631 1022.21 369.427C1006.64 380.474 990.534 391.901 972.794 396.838C916.552 412.513 861.96 347.322 815.198 285.001C767.048 220.797 722.977 169.502 671.268 192.323C640.177 206.037 608.868 243.461 578.207 303.559C569.651 320.33 561.513 338.29 553.642 355.663C538.417 389.264 522.673 424.012 502.664 453.21C464.827 508.425 430.181 536.243 399.37 536.243Z" fill="#18A6FE"/>
<path d="M405.922 537.122C399.477 537.122 392.968 535.881 386.437 533.133C355.276 520.025 332.726 476.94 310.915 435.273C297.21 409.094 283.042 382.022 266.913 362.765C218.802 304.975 147.72 324.816 111.684 406.084L104.719 395.266C143.527 307.757 220.038 286.337 271.795 348.501C288.783 368.79 303.323 396.565 317.383 423.422C339.234 465.165 359.872 504.596 388.424 516.608C432.129 534.992 476.258 478.337 498.67 442.928C517.521 413.146 532.669 377.098 547.322 342.235C555.086 323.762 563.115 304.654 571.638 286.587C602.856 220.422 635.411 180.034 668.401 166.553C724.905 143.461 773.632 203.859 822.698 273.276C867.738 336.972 920.329 403.446 974.544 385.71C991.321 380.222 1007.01 367.499 1022.18 355.195C1037.05 343.137 1052.43 330.663 1069.18 324.494C1107.25 310.48 1148.23 333.415 1184.38 353.658L1189.2 356.351C1223.47 375.476 1262.31 397.154 1301.17 380.061C1339.01 363.422 1381.01 299.924 1380.6 239.852L1389.65 239.632C1390.13 309.497 1344.5 378.402 1303.24 396.549C1262.05 414.67 1221.97 392.31 1186.61 372.584L1181.79 369.887C1144.92 349.25 1106.8 327.911 1070.93 341.117C1055.13 346.93 1040.21 359.035 1025.78 370.738C1010.13 383.436 993.942 396.57 976.103 402.4C918.306 421.296 863.8 352.633 817.242 286.79C769.925 219.847 723.086 161.549 670.335 183.108C639.265 195.806 608.343 234.395 578.427 297.803C570.074 315.51 562.126 334.419 554.439 352.705C539.508 388.237 524.068 424.976 504.513 455.871C484.069 488.164 446.391 537.113 405.922 537.122Z" fill="#10A3FE"/>
<path d="M412.769 538.088C406.192 538.092 399.485 536.771 392.696 533.829C361.304 520.204 338.735 476.238 316.906 433.72C303.179 406.982 288.986 379.33 272.772 359.595C224.387 300.527 152.238 319.99 115.225 402.092L108.305 391.172C127.744 348.053 156.228 319.542 188.509 310.883C220.725 302.25 252.4 314.503 277.712 345.407C294.793 366.196 309.353 394.56 323.433 421.987C345.307 464.599 365.968 504.843 394.74 517.329C440.689 537.275 483.824 474.104 500.233 446.015C518.617 414.548 533.49 376.527 547.871 339.763C555.457 320.371 563.3 300.319 571.612 281.313C602.155 211.498 634.451 169.764 667.601 157.277C725.321 135.519 776.975 203.674 824.924 275.338C873.069 347.287 924.898 411.136 977.612 391.338C994.387 385.042 1009.41 371.323 1025.31 356.801C1040.1 343.299 1055.39 329.331 1072.06 322.133C1113.16 304.38 1156.94 331.596 1192.12 353.456L1192.78 353.867C1229.54 376.713 1267.56 400.356 1305.42 387.231C1342.89 374.258 1382.61 311.637 1379.69 247.263L1388.71 245.832C1392.12 321.129 1348.43 389.564 1307.07 403.887C1266.91 417.783 1227.78 393.467 1189.93 369.939L1189.27 369.528C1155.16 348.337 1112.73 321.968 1074.1 338.633C1058.43 345.394 1043.61 358.93 1029.28 372.018C1013.56 386.371 997.313 401.211 979.395 407.939C923.031 429.088 869.133 363.067 819.277 288.57C772.997 219.399 723.302 153.573 669.391 173.875C638.345 185.573 607.806 225.326 578.623 292.033C570.465 310.684 562.696 330.546 555.18 349.76C540.537 387.192 525.395 425.904 506.348 458.506C491.244 484.359 454.776 538.084 412.769 538.088Z" fill="#08A0FF"/>
<path d="M419.061 538.885C412.22 538.885 405.488 537.45 398.952 534.524C367.336 520.362 344.749 475.528 322.907 432.176C309.155 404.879 294.934 376.651 278.629 356.434C229.966 296.086 156.757 315.169 118.763 398.109L111.891 387.084C131.805 343.613 160.762 314.983 193.424 306.468C226.088 297.949 258.122 310.689 283.631 342.317C300.804 363.614 315.389 392.562 329.495 420.558C351.391 464.02 372.075 505.068 401.064 518.058C433.139 532.433 470.804 506.66 501.805 449.129C519.68 415.96 534.276 375.99 548.393 337.342C555.815 317.015 563.491 295.997 571.606 276.043C601.89 201.558 633.031 159.679 666.803 148.01C725.885 127.619 780.55 204.103 827.149 277.414C875.17 352.953 927.003 419.724 980.69 396.983C997.459 389.882 1012.5 374.597 1028.42 358.419C1043.13 343.473 1058.34 328.011 1074.95 319.793C1115.25 299.85 1158.07 325.233 1195.05 350.591L1199.45 353.618C1235.4 378.323 1272.57 403.88 1309.69 394.447C1331.96 388.794 1353.95 364.995 1367.08 332.325C1376.84 308.052 1380.89 281.178 1378.8 254.61L1387.76 252.142C1390.21 283.287 1385.56 314.534 1374.32 342.508C1359.79 378.662 1335.49 404.998 1310.91 411.234C1271.54 421.214 1233.31 394.938 1196.33 369.517L1191.93 366.498C1154.62 340.903 1115.02 317.481 1077.27 336.17C1061.71 343.871 1046.98 358.834 1032.74 373.306C1016.98 389.323 1000.68 405.887 982.689 413.504C925.152 437.862 871.13 368.725 821.324 290.379C774.243 216.313 723.652 145.584 668.449 164.671C636.989 175.536 607.669 215.323 578.812 286.302C570.839 305.913 563.227 326.749 555.867 346.903C541.511 386.211 526.666 426.854 508.18 461.162C481.114 511.369 449.023 538.885 419.061 538.885Z" fill="#009DFF"/>
</g>
</svg>
