<svg width="40" height="40" viewBox="0 0 40 40" fill="none" xmlns="http://www.w3.org/2000/svg">
<rect width="40" height="40" rx="20" fill="#266279"/>
<g clip-path="url(#clip0_418_3631)">
<path d="M23.8938 10.9065C23.6065 10.9207 23.3282 10.7572 23.21 10.4776L22.8006 9.50789C22.6497 9.15047 22.818 8.73886 23.1762 8.58834C23.5343 8.43801 23.9469 8.60554 24.0978 8.96297L24.5072 9.93267C24.6581 10.2901 24.49 10.7017 24.1316 10.8521C24.0561 10.8839 23.9756 10.9023 23.8938 10.9065ZM26.7865 10.3777C26.6832 10.3828 26.5774 10.3654 26.4761 10.3222C26.1185 10.1702 25.9521 9.75801 26.1044 9.40134L26.5202 8.42719C26.6726 8.07047 27.0858 7.90444 27.4435 8.0564C27.8011 8.20819 27.9675 8.62054 27.8152 8.97726L27.3992 9.95133C27.29 10.207 27.047 10.3646 26.7865 10.3777H26.7865ZM28.4515 12.7267C28.1618 12.7412 27.8815 12.5745 27.7652 12.2917C27.6178 11.9327 27.7899 11.5228 28.1495 11.3757L29.1469 10.9678C29.5065 10.8208 29.9176 10.9923 30.065 11.3512C30.2124 11.7099 30.0404 12.1199 29.6808 12.2669L28.6833 12.6749C28.6095 12.7051 28.5311 12.7226 28.4515 12.7267ZM28.7776 16.2504C27.9009 13.9266 25.7701 12.4191 23.3488 12.4099H23.3351C22.0635 12.4099 21.1388 13.0812 20.3224 13.6735C19.7023 14.1236 19.1662 14.5129 18.6152 14.518C18.0644 14.5129 17.5281 14.1238 16.9081 13.6735C16.0918 13.081 15.1672 12.4099 13.8955 12.4099H13.8818C11.4605 12.4191 9.32955 13.9266 8.45285 16.2504C7.46332 18.8737 8.47338 20.9516 9.45025 22.9612C9.59857 23.2664 9.75199 23.5823 9.89557 23.8945C10.1219 24.3867 10.3434 25.2704 10.578 26.2058C11.1293 28.4054 11.7543 30.8986 13.1493 31.72C13.6252 32.0002 14.1659 32.0718 14.7131 31.9269C16.1599 31.5442 16.6501 29.9013 17.0824 28.4516C17.5407 26.9155 17.8732 25.9799 18.6154 25.9711C19.3573 25.9799 19.6901 26.9155 20.1482 28.4516C20.5807 29.9013 21.0707 31.5442 22.5176 31.9269C22.7018 31.9757 22.8852 32 23.0658 32C23.4213 32 23.7658 31.9059 24.0813 31.72C25.4763 30.8984 26.1015 28.4055 26.6528 26.2058C26.8872 25.2704 27.1087 24.3867 27.335 23.8945C27.4786 23.5821 27.632 23.2664 27.7805 22.961C28.7572 20.9516 29.7672 18.8737 28.7776 16.2504ZM13.8978 16.6219C13.2246 16.6245 12.6664 17.0403 12.4046 17.7341C12.2984 18.0155 12.0306 18.1889 11.7461 18.1889C11.6636 18.1889 11.5799 18.1745 11.4983 18.1437C11.1344 18.0071 10.9506 17.6023 11.0874 17.2393C11.5561 15.9973 12.631 15.2227 13.8926 15.2178H13.8953C14.2827 15.2178 14.5975 15.5304 14.599 15.9173C14.6005 16.305 14.2866 16.6204 13.8978 16.6219Z" fill="white"/>
</g>
<defs>
<clipPath id="clip0_418_3631">
<rect width="24" height="24" fill="white" transform="translate(8 8)"/>
</clipPath>
</defs>
</svg>
